<svg width="282" height="298" xmlns="http://www.w3.org/2000/svg">
  <path d="M19.7218 222.0202l-1.1905.8189C42.7729 267.5282 88.6529 297.7182 141 297.7182c77.8539 0 140.9099-66.626 140.9099-148.7171 0-22.6069-9.3689-41.642-20.4479-56.0679-14.723-19.185-35.692-28.405-56.587-28.554-17.251-.1481-35.096 5.652-47.665 17.028-14.351 13.013-17.548 29.745-21.266 56.8849-4.089 29.744-28.0331 50.267-58.8171 50.267-39.857 0-64.5433-24.538-62.9082-62.09.1494-2.6029.3717-5.2039.8185-7.732C22.547 74.4192 70.212 28.6886 141.893 28.8361c48.1099 0 84.248 10.7819 120.3869 47.1431l1.191-.816C239.2289 30.4731 193.424.2819 141 .2819 63.221.2819.09 66.9072.09 149.0011c0 22.604 9.3692 41.64 20.4502 56.065 14.648 19.185 35.6928 28.33 56.5867 28.5551 17.251.2219 35.0971-5.6531 47.663-17.029 14.3531-13.0131 17.5501-29.7431 21.2671-56.8841 4.09-29.745 28.1069-50.2679 58.818-50.2679 39.93 0 64.618 24.539 62.981 62.0899-.1471 2.6031-.3721 5.206-.8161 7.735-7.6599 44.317-55.0999 90.0481-126.9309 89.8981-48.1111 0-84.248-10.781-120.3872-47.143" fill="#00a6f4"/>
</svg>